<?xml version="1.0" encoding="UTF-8" standalone="no"?>
<!DOCTYPE svg PUBLIC "-//W3C//DTD SVG 1.1//EN"
 "http://www.w3.org/Graphics/SVG/1.1/DTD/svg11.dtd">
<!-- Generated by graphviz version 2.40.1 (20161225.0304)
 -->
<!-- Title: consort_flow Pages: 1 -->
<svg width="330pt" height="880pt"
 viewBox="0.00 0.00 329.91 880.00" xmlns="http://www.w3.org/2000/svg" xmlns:xlink="http://www.w3.org/1999/xlink">
<g id="graph0" class="graph" transform="scale(1 1) rotate(0) translate(36 844)">
<title>consort_flow</title>
<polygon fill="#ffffff" stroke="transparent" points="-36,36 -36,-844 293.9135,-844 293.9135,36 -36,36"/>
<!-- A -->
<g id="node1" class="node">
<title>A</title>
<polygon fill="none" stroke="#000000" points="142.0216,-808 1.6454,-808 1.6454,-762 142.0216,-762 142.0216,-808"/>
<text text-anchor="middle" x="71.8335" y="-788" font-family="Helvetica,sans-Serif" font-size="10.00" fill="#000000">Initial Dataset</text>
<text text-anchor="middle" x="71.8335" y="-776" font-family="Helvetica,sans-Serif" font-size="10.00" fill="#000000">1070 Samples | 47 Donors</text>
</g>
<!-- j1 -->
<g id="node11" class="node">
<title>j1</title>
<ellipse fill="#000000" stroke="#000000" cx="71.8335" cy="-697" rx="0" ry="0"/>
</g>
<!-- A&#45;&gt;j1 -->
<g id="edge1" class="edge">
<title>A&#45;&gt;j1</title>
<path fill="none" stroke="#404040" d="M71.8335,-761.879C71.8335,-736.6209 71.8335,-699.4129 71.8335,-697.1121"/>
</g>
<!-- B -->
<g id="node2" class="node">
<title>B</title>
<polygon fill="none" stroke="#000000" points="138.963,-632 4.704,-632 4.704,-586 138.963,-586 138.963,-632"/>
<text text-anchor="middle" x="71.8335" y="-612" font-family="Helvetica,sans-Serif" font-size="10.00" fill="#000000">Post&#45;Age Filter</text>
<text text-anchor="middle" x="71.8335" y="-600" font-family="Helvetica,sans-Serif" font-size="10.00" fill="#000000">777 Samples | 47 Donors</text>
</g>
<!-- j2 -->
<g id="node12" class="node">
<title>j2</title>
<ellipse fill="#000000" stroke="#000000" cx="71.8335" cy="-527" rx="0" ry="0"/>
</g>
<!-- B&#45;&gt;j2 -->
<g id="edge4" class="edge">
<title>B&#45;&gt;j2</title>
<path fill="none" stroke="#404040" d="M71.8335,-585.7214C71.8335,-562.2362 71.8335,-529.1449 71.8335,-527.0996"/>
</g>
<!-- C -->
<g id="node3" class="node">
<title>C</title>
<polygon fill="none" stroke="#000000" points="138.963,-468 4.704,-468 4.704,-422 138.963,-422 138.963,-468"/>
<text text-anchor="middle" x="71.8335" y="-448" font-family="Helvetica,sans-Serif" font-size="10.00" fill="#000000">Post&#45;Antibiotic Exclusion</text>
<text text-anchor="middle" x="71.8335" y="-436" font-family="Helvetica,sans-Serif" font-size="10.00" fill="#000000">583 Samples | 44 Donors</text>
</g>
<!-- j3 -->
<g id="node13" class="node">
<title>j3</title>
<ellipse fill="#000000" stroke="#000000" cx="71.8335" cy="-363" rx="0" ry="0"/>
</g>
<!-- C&#45;&gt;j3 -->
<g id="edge7" class="edge">
<title>C&#45;&gt;j3</title>
<path fill="none" stroke="#404040" d="M71.8335,-421.7214C71.8335,-398.2362 71.8335,-365.1449 71.8335,-363.0996"/>
</g>
<!-- D -->
<g id="node4" class="node">
<title>D</title>
<polygon fill="none" stroke="#000000" points="143.5009,-304 .1661,-304 .1661,-258 143.5009,-258 143.5009,-304"/>
<text text-anchor="middle" x="71.8335" y="-284" font-family="Helvetica,sans-Serif" font-size="10.00" fill="#000000">Post&#45;Early Failure Removal</text>
<text text-anchor="middle" x="71.8335" y="-272" font-family="Helvetica,sans-Serif" font-size="10.00" fill="#000000">468 Samples | 42 Donors</text>
</g>
<!-- j4 -->
<g id="node14" class="node">
<title>j4</title>
<ellipse fill="#000000" stroke="#000000" cx="71.8335" cy="-193" rx="0" ry="0"/>
</g>
<!-- D&#45;&gt;j4 -->
<g id="edge10" class="edge">
<title>D&#45;&gt;j4</title>
<path fill="none" stroke="#404040" d="M71.8335,-257.879C71.8335,-232.6209 71.8335,-195.4129 71.8335,-193.1121"/>
</g>
<!-- E -->
<g id="node5" class="node">
<title>E</title>
<polygon fill="none" stroke="#000000" points="138.963,-128 4.704,-128 4.704,-82 138.963,-82 138.963,-128"/>
<text text-anchor="middle" x="71.8335" y="-108" font-family="Helvetica,sans-Serif" font-size="10.00" fill="#000000">Post&#45;Frequency Filter</text>
<text text-anchor="middle" x="71.8335" y="-96" font-family="Helvetica,sans-Serif" font-size="10.00" fill="#000000">364 Samples | 17 Donors</text>
</g>
<!-- F -->
<g id="node6" class="node">
<title>F</title>
<path fill="#e0f2f7" stroke="#000000" d="M120.8425,-46C120.8425,-46 22.8245,-46 22.8245,-46 16.8245,-46 10.8245,-40 10.8245,-34 10.8245,-34 10.8245,-12 10.8245,-12 10.8245,-6 16.8245,0 22.8245,0 22.8245,0 120.8425,0 120.8425,0 126.8425,0 132.8425,-6 132.8425,-12 132.8425,-12 132.8425,-34 132.8425,-34 132.8425,-40 126.8425,-46 120.8425,-46"/>
<text text-anchor="middle" x="71.8335" y="-26" font-family="Helvetica,sans-Serif" font-size="10.00" fill="#000000">Final Analytical Cohort</text>
<text text-anchor="middle" x="71.8335" y="-14" font-family="Helvetica,sans-Serif" font-size="10.00" fill="#000000">17 Donors</text>
</g>
<!-- E&#45;&gt;F -->
<g id="edge13" class="edge">
<title>E&#45;&gt;F</title>
<path fill="none" stroke="#404040" d="M71.8335,-81.7214C71.8335,-81.7214 71.8335,-56.053 71.8335,-56.053"/>
<polygon fill="#404040" stroke="#404040" points="71.8335,-46.053 76.3336,-56.0529 71.8335,-51.053 71.8336,-56.053 71.8336,-56.053 71.8336,-56.053 71.8335,-51.053 67.3336,-56.053 71.8335,-46.053 71.8335,-46.053"/>
</g>
<!-- X1 -->
<g id="node7" class="node">
<title>X1</title>
<polygon fill="none" stroke="#000000" points="187.9696,-726 89.6974,-726 89.6974,-668 187.9696,-668 187.9696,-726"/>
<text text-anchor="middle" x="138.8335" y="-706" font-family="Helvetica,sans-Serif" font-size="10.00" fill="#000000">Excluded for Age</text>
<text text-anchor="middle" x="138.8335" y="-694" font-family="Helvetica,sans-Serif" font-size="10.00" fill="#000000">(≤60 yrs)</text>
<text text-anchor="middle" x="138.8335" y="-682" font-family="Helvetica,sans-Serif" font-size="10.00" fill="#000000">293 Samples</text>
</g>
<!-- X2 -->
<g id="node8" class="node">
<title>X2</title>
<polygon fill="none" stroke="#000000" points="231.8013,-550 89.8657,-550 89.8657,-504 231.8013,-504 231.8013,-550"/>
<text text-anchor="middle" x="160.8335" y="-530" font-family="Helvetica,sans-Serif" font-size="10.00" fill="#000000">Excluded for Antibiotic Use</text>
<text text-anchor="middle" x="160.8335" y="-518" font-family="Helvetica,sans-Serif" font-size="10.00" fill="#000000">194 Samples | 3 Donors</text>
</g>
<!-- X3 -->
<g id="node9" class="node">
<title>X3</title>
<polygon fill="none" stroke="#000000" points="226.2913,-386 89.3757,-386 89.3757,-340 226.2913,-340 226.2913,-386"/>
<text text-anchor="middle" x="157.8335" y="-366" font-family="Helvetica,sans-Serif" font-size="10.00" fill="#000000">Excluded for Early Failure</text>
<text text-anchor="middle" x="157.8335" y="-354" font-family="Helvetica,sans-Serif" font-size="10.00" fill="#000000">115 Samples | 2 Donors</text>
</g>
<!-- X4 -->
<g id="node10" class="node">
<title>X4</title>
<polygon fill="none" stroke="#000000" points="257.9936,-222 89.6734,-222 89.6734,-164 257.9936,-164 257.9936,-222"/>
<text text-anchor="middle" x="173.8335" y="-202" font-family="Helvetica,sans-Serif" font-size="10.00" fill="#000000">Excluded for Infrequent Donation</text>
<text text-anchor="middle" x="173.8335" y="-190" font-family="Helvetica,sans-Serif" font-size="10.00" fill="#000000">(&lt;10 Samples)</text>
<text text-anchor="middle" x="173.8335" y="-178" font-family="Helvetica,sans-Serif" font-size="10.00" fill="#000000">104 Samples | 25 Donors</text>
</g>
<!-- j1&#45;&gt;B -->
<g id="edge2" class="edge">
<title>j1&#45;&gt;B</title>
<path fill="none" stroke="#404040" d="M71.8335,-696.9362C71.8335,-696.9362 71.8335,-642.409 71.8335,-642.409"/>
<polygon fill="#404040" stroke="#404040" points="71.8335,-632.409 76.3336,-642.409 71.8335,-637.409 71.8336,-642.409 71.8336,-642.409 71.8336,-642.409 71.8335,-637.409 67.3336,-642.4091 71.8335,-632.409 71.8335,-632.409"/>
</g>
<!-- j1&#45;&gt;X1 -->
<g id="edge3" class="edge">
<title>j1&#45;&gt;X1</title>
<path fill="none" stroke="#404040" d="M71.8821,-697C71.8821,-697 79.6783,-697 79.6783,-697"/>
<polygon fill="#404040" stroke="#404040" points="89.6783,-697 79.6783,-701.5001 84.6783,-697 79.6783,-697.0001 79.6783,-697.0001 79.6783,-697.0001 84.6783,-697 79.6782,-692.5001 89.6783,-697 89.6783,-697"/>
</g>
<!-- j2&#45;&gt;C -->
<g id="edge5" class="edge">
<title>j2&#45;&gt;C</title>
<path fill="none" stroke="#404040" d="M71.8335,-526.9406C71.8335,-526.9406 71.8335,-478.0939 71.8335,-478.0939"/>
<polygon fill="#404040" stroke="#404040" points="71.8335,-468.0939 76.3336,-478.0939 71.8335,-473.0939 71.8336,-478.0939 71.8336,-478.0939 71.8336,-478.0939 71.8335,-473.0939 67.3336,-478.094 71.8335,-468.0939 71.8335,-468.0939"/>
</g>
<!-- j2&#45;&gt;X2 -->
<g id="edge6" class="edge">
<title>j2&#45;&gt;X2</title>
<path fill="none" stroke="#404040" d="M71.898,-527C71.898,-527 79.7971,-527 79.7971,-527"/>
<polygon fill="#404040" stroke="#404040" points="89.7971,-527 79.7972,-531.5001 84.7971,-527 79.7971,-527.0001 79.7971,-527.0001 79.7971,-527.0001 84.7971,-527 79.7971,-522.5001 89.7971,-527 89.7971,-527"/>
</g>
<!-- j3&#45;&gt;D -->
<g id="edge8" class="edge">
<title>j3&#45;&gt;D</title>
<path fill="none" stroke="#404040" d="M71.8335,-362.9406C71.8335,-362.9406 71.8335,-314.0939 71.8335,-314.0939"/>
<polygon fill="#404040" stroke="#404040" points="71.8335,-304.0939 76.3336,-314.0939 71.8335,-309.0939 71.8336,-314.0939 71.8336,-314.0939 71.8336,-314.0939 71.8335,-309.0939 67.3336,-314.094 71.8335,-304.0939 71.8335,-304.0939"/>
</g>
<!-- j3&#45;&gt;X3 -->
<g id="edge9" class="edge">
<title>j3&#45;&gt;X3</title>
<path fill="none" stroke="#404040" d="M71.8958,-363C71.8958,-363 79.6006,-363 79.6006,-363"/>
<polygon fill="#404040" stroke="#404040" points="89.6006,-363 79.6006,-367.5001 84.6006,-363 79.6006,-363.0001 79.6006,-363.0001 79.6006,-363.0001 84.6006,-363 79.6005,-358.5001 89.6006,-363 89.6006,-363"/>
</g>
<!-- j4&#45;&gt;E -->
<g id="edge11" class="edge">
<title>j4&#45;&gt;E</title>
<path fill="none" stroke="#404040" d="M71.8335,-192.9362C71.8335,-192.9362 71.8335,-138.409 71.8335,-138.409"/>
<polygon fill="#404040" stroke="#404040" points="71.8335,-128.409 76.3336,-138.409 71.8335,-133.409 71.8336,-138.409 71.8336,-138.409 71.8336,-138.409 71.8335,-133.409 67.3336,-138.4091 71.8335,-128.409 71.8335,-128.409"/>
</g>
<!-- j4&#45;&gt;X4 -->
<g id="edge12" class="edge">
<title>j4&#45;&gt;X4</title>
<path fill="none" stroke="#404040" d="M71.9074,-193C71.9074,-193 79.5933,-193 79.5933,-193"/>
<polygon fill="#404040" stroke="#404040" points="89.5933,-193 79.5933,-197.5001 84.5933,-193 79.5933,-193.0001 79.5933,-193.0001 79.5933,-193.0001 84.5933,-193 79.5932,-188.5001 89.5933,-193 89.5933,-193"/>
</g>
</g>
</svg>
